<svg width="1363" height="301" viewBox="0 0 1363 301" fill="none" xmlns="http://www.w3.org/2000/svg">
<rect width="1363" height="301" rx="15" fill="#F4F4F4"/>
<path d="M0 15C0 6.71573 6.71573 0 15 0H37V301H15C6.71573 301 0 294.284 0 286V15Z" fill="#FE6969"/>
<path d="M94.5781 147V107H122.703V115.75H105.438V122.625H120.984V131.375H105.438V147H94.5781ZM137.635 107V147H126.854V107H137.635ZM157.581 147.547C154.326 147.547 151.539 146.902 149.222 145.613C146.904 144.311 145.127 142.501 143.89 140.184C142.653 137.853 142.034 135.151 142.034 132.078C142.034 129.005 142.653 126.31 143.89 123.992C145.127 121.661 146.904 119.852 149.222 118.562C151.539 117.26 154.326 116.609 157.581 116.609C160.836 116.609 163.623 117.26 165.94 118.562C168.258 119.852 170.035 121.661 171.272 123.992C172.509 126.31 173.128 129.005 173.128 132.078C173.128 135.151 172.509 137.853 171.272 140.184C170.035 142.501 168.258 144.311 165.94 145.613C163.623 146.902 160.836 147.547 157.581 147.547ZM157.659 139.578C158.571 139.578 159.358 139.272 160.022 138.66C160.687 138.048 161.201 137.176 161.565 136.043C161.93 134.91 162.112 133.562 162.112 132C162.112 130.424 161.93 129.077 161.565 127.957C161.201 126.824 160.687 125.952 160.022 125.34C159.358 124.728 158.571 124.422 157.659 124.422C156.696 124.422 155.869 124.728 155.179 125.34C154.489 125.952 153.961 126.824 153.597 127.957C153.232 129.077 153.05 130.424 153.05 132C153.05 133.562 153.232 134.91 153.597 136.043C153.961 137.176 154.489 138.048 155.179 138.66C155.869 139.272 156.696 139.578 157.659 139.578ZM182.278 147L174.778 117H185.56L188.997 135.281H189.231L193.06 117H203.528L207.513 135.125H207.747L211.028 117H221.81L214.31 147H202.669L198.45 130.906H198.138L193.919 147H182.278ZM247.532 107L254.095 118.641H254.407L261.048 107H273.157L261.204 127L273.626 147H261.204L254.407 135.125H254.095L247.298 147H234.954L247.22 127L235.345 107H247.532ZM277.996 147V117H288.465V122.703H288.777C289.324 120.594 290.19 119.051 291.375 118.074C292.573 117.098 293.973 116.609 295.574 116.609C296.043 116.609 296.505 116.648 296.961 116.727C297.43 116.792 297.879 116.889 298.309 117.02V126.219C297.775 126.036 297.117 125.9 296.336 125.809C295.555 125.717 294.884 125.672 294.324 125.672C293.27 125.672 292.319 125.913 291.473 126.395C290.639 126.863 289.982 127.527 289.5 128.387C289.018 129.233 288.777 130.229 288.777 131.375V147H277.996Z" fill="#333333"/>
<path d="M94.2124 82V56.5455H99.5941V67.0479H110.519V56.5455H115.888V82H110.519V71.4851H99.5941V82H94.2124ZM136.11 68.353L131.263 68.6513C131.18 68.237 131.002 67.8641 130.729 67.5327C130.455 67.1929 130.095 66.9237 129.647 66.7248C129.208 66.5176 128.682 66.4141 128.069 66.4141C127.249 66.4141 126.557 66.5881 125.993 66.9361C125.43 67.2758 125.148 67.7315 125.148 68.3033C125.148 68.759 125.33 69.1443 125.695 69.4592C126.06 69.774 126.685 70.0268 127.572 70.2173L131.027 70.9134C132.883 71.2945 134.267 71.9077 135.178 72.7528C136.09 73.598 136.545 74.7083 136.545 76.0838C136.545 77.335 136.177 78.4329 135.439 79.3775C134.71 80.3221 133.708 81.0595 132.431 81.5898C131.164 82.1119 129.701 82.3729 128.044 82.3729C125.517 82.3729 123.503 81.8467 122.004 80.7944C120.512 79.7338 119.638 78.292 119.381 76.4691L124.589 76.1957C124.746 76.9663 125.127 77.5546 125.732 77.9606C126.337 78.3583 127.112 78.5572 128.056 78.5572C128.984 78.5572 129.73 78.379 130.294 78.0227C130.865 77.6581 131.155 77.19 131.164 76.6183C131.155 76.1377 130.952 75.7441 130.555 75.4375C130.157 75.1226 129.544 74.8823 128.715 74.7166L125.409 74.0579C123.545 73.685 122.157 73.0387 121.245 72.119C120.342 71.1992 119.891 70.0268 119.891 68.6016C119.891 67.3752 120.222 66.3188 120.885 65.4322C121.556 64.5456 122.497 63.862 123.706 63.3814C124.924 62.9008 126.35 62.6605 127.982 62.6605C130.393 62.6605 132.291 63.1701 133.674 64.1893C135.066 65.2085 135.878 66.5964 136.11 68.353ZM148.58 82.3729C146.616 82.3729 144.926 81.9751 143.509 81.1797C142.1 80.3759 141.015 79.2408 140.252 77.7741C139.49 76.2992 139.109 74.555 139.109 72.5415C139.109 70.5778 139.49 68.8543 140.252 67.3711C141.015 65.8879 142.088 64.732 143.472 63.9034C144.864 63.0748 146.496 62.6605 148.369 62.6605C149.628 62.6605 150.8 62.8635 151.886 63.2695C152.98 63.6673 153.933 64.268 154.745 65.0717C155.565 65.8755 156.203 66.8864 156.659 68.1044C157.114 69.3142 157.342 70.7311 157.342 72.3551V73.8093H141.222V70.5281H152.358C152.358 69.7657 152.193 69.0904 151.861 68.5021C151.53 67.9138 151.07 67.454 150.481 67.1225C149.901 66.7828 149.226 66.6129 148.456 66.6129C147.652 66.6129 146.939 66.7994 146.318 67.1722C145.705 67.5368 145.224 68.0298 144.876 68.6513C144.528 69.2644 144.35 69.948 144.342 70.7021V73.8217C144.342 74.7663 144.516 75.5825 144.864 76.2702C145.22 76.958 145.721 77.4883 146.367 77.8612C147.014 78.234 147.78 78.4205 148.667 78.4205C149.255 78.4205 149.794 78.3376 150.283 78.1719C150.771 78.0062 151.19 77.7576 151.538 77.4261C151.886 77.0947 152.151 76.6887 152.333 76.2081L157.23 76.5312C156.982 77.7079 156.472 78.7353 155.702 79.6136C154.939 80.4837 153.953 81.1631 152.744 81.652C151.542 82.1326 150.154 82.3729 148.58 82.3729ZM160.797 82V62.9091H166.092V82H160.797ZM163.457 60.4482C162.67 60.4482 161.995 60.1871 161.431 59.6651C160.876 59.1348 160.599 58.5009 160.599 57.7635C160.599 57.0343 160.876 56.4087 161.431 55.8867C161.995 55.3564 162.67 55.0913 163.457 55.0913C164.244 55.0913 164.916 55.3564 165.471 55.8867C166.034 56.4087 166.316 57.0343 166.316 57.7635C166.316 58.5009 166.034 59.1348 165.471 59.6651C164.916 60.1871 164.244 60.4482 163.457 60.4482ZM175.628 70.9631V82H170.334V62.9091H175.38V66.2773H175.604C176.026 65.167 176.735 64.2887 177.729 63.6424C178.723 62.9878 179.929 62.6605 181.346 62.6605C182.671 62.6605 183.827 62.9505 184.813 63.5305C185.799 64.1106 186.566 64.9392 187.113 66.0163C187.66 67.0852 187.933 68.3613 187.933 69.8445V82H182.638V70.7891C182.647 69.6207 182.348 68.7093 181.743 68.0547C181.139 67.3918 180.306 67.0604 179.245 67.0604C178.533 67.0604 177.903 67.2137 177.356 67.5202C176.817 67.8268 176.395 68.2743 176.088 68.8626C175.79 69.4426 175.637 70.1428 175.628 70.9631ZM200.306 82V56.5455H210.498C212.371 56.5455 213.932 56.823 215.184 57.3782C216.435 57.9334 217.375 58.704 218.005 59.69C218.635 60.6677 218.95 61.7946 218.95 63.0707C218.95 64.065 218.751 64.9392 218.353 65.6932C217.955 66.4389 217.408 67.0521 216.712 67.5327C216.025 68.005 215.237 68.3406 214.351 68.5394V68.788C215.32 68.8294 216.228 69.1029 217.073 69.6083C217.926 70.1138 218.618 70.8222 219.148 71.7337C219.679 72.6368 219.944 73.714 219.944 74.9652C219.944 76.3158 219.608 77.5214 218.937 78.582C218.274 79.6344 217.292 80.4671 215.991 81.0803C214.691 81.6934 213.087 82 211.181 82H200.306ZM205.688 77.6001H210.075C211.575 77.6001 212.669 77.3143 213.357 76.7425C214.044 76.1625 214.388 75.3919 214.388 74.4308C214.388 73.7264 214.218 73.105 213.879 72.5664C213.539 72.0278 213.054 71.6052 212.424 71.2987C211.803 70.9921 211.061 70.8388 210.2 70.8388H205.688V77.6001ZM205.688 67.1971H209.678C210.415 67.1971 211.07 67.0687 211.641 66.8118C212.221 66.5466 212.677 66.1738 213.009 65.6932C213.348 65.2126 213.518 64.6367 213.518 63.9656C213.518 63.0458 213.191 62.3042 212.536 61.7408C211.89 61.1773 210.97 60.8956 209.777 60.8956H205.688V67.1971ZM223.346 82V62.9091H228.641V82H223.346ZM226.006 60.4482C225.219 60.4482 224.544 60.1871 223.98 59.6651C223.425 59.1348 223.147 58.5009 223.147 57.7635C223.147 57.0343 223.425 56.4087 223.98 55.8867C224.544 55.3564 225.219 55.0913 226.006 55.0913C226.793 55.0913 227.464 55.3564 228.02 55.8867C228.583 56.4087 228.865 57.0343 228.865 57.7635C228.865 58.5009 228.583 59.1348 228.02 59.6651C227.464 60.1871 226.793 60.4482 226.006 60.4482ZM243.037 62.9091V66.8864H231.54V62.9091H243.037ZM234.15 58.3352H239.445V76.1335C239.445 76.6224 239.52 77.0036 239.669 77.277C239.818 77.5421 240.025 77.7286 240.29 77.8363C240.564 77.944 240.878 77.9979 241.235 77.9979C241.483 77.9979 241.732 77.9772 241.98 77.9357C242.229 77.886 242.42 77.8487 242.552 77.8239L243.385 81.7638C243.12 81.8467 242.747 81.942 242.266 82.0497C241.786 82.1657 241.202 82.2362 240.514 82.261C239.238 82.3107 238.119 82.1409 237.158 81.7514C236.205 81.362 235.464 80.7571 234.933 79.9368C234.403 79.1165 234.142 78.0807 234.15 76.8295V58.3352ZM251.93 82.3604C250.712 82.3604 249.626 82.1491 248.673 81.7266C247.721 81.2957 246.967 80.6618 246.411 79.8249C245.865 78.9798 245.591 77.9274 245.591 76.668C245.591 75.6074 245.786 74.7166 246.175 73.9957C246.565 73.2749 247.095 72.6948 247.766 72.2557C248.437 71.8165 249.2 71.4851 250.053 71.2614C250.915 71.0376 251.818 70.8802 252.763 70.7891C253.873 70.6731 254.768 70.5653 255.447 70.4659C256.127 70.3582 256.62 70.2008 256.926 69.9936C257.233 69.7865 257.386 69.4799 257.386 69.0739V68.9993C257.386 68.2121 257.138 67.6031 256.64 67.1722C256.152 66.7414 255.456 66.5259 254.552 66.5259C253.599 66.5259 252.841 66.7372 252.278 67.1598C251.714 67.5741 251.342 68.0961 251.159 68.7259L246.262 68.3281C246.511 67.1681 247 66.1655 247.729 65.3203C248.458 64.4669 249.398 63.8123 250.55 63.3565C251.71 62.8925 253.053 62.6605 254.577 62.6605C255.638 62.6605 256.653 62.7848 257.622 63.0334C258.6 63.282 259.466 63.6673 260.22 64.1893C260.982 64.7113 261.583 65.3825 262.022 66.2028C262.461 67.0148 262.681 67.9884 262.681 69.1236V82H257.66V79.3526H257.51C257.204 79.9492 256.794 80.4754 256.28 80.9311C255.766 81.3786 255.149 81.7307 254.428 81.9876C253.707 82.2362 252.874 82.3604 251.93 82.3604ZM253.446 78.7063C254.225 78.7063 254.913 78.553 255.509 78.2464C256.106 77.9316 256.574 77.509 256.914 76.9787C257.254 76.4484 257.423 75.8477 257.423 75.1765V73.1506C257.258 73.2583 257.03 73.3577 256.74 73.4489C256.458 73.5317 256.139 73.6104 255.783 73.685C255.427 73.7513 255.07 73.8134 254.714 73.8714C254.358 73.9212 254.035 73.9667 253.744 74.0082C253.123 74.0993 252.58 74.2443 252.116 74.4432C251.652 74.642 251.292 74.9113 251.035 75.2511C250.778 75.5825 250.65 75.9968 250.65 76.494C250.65 77.2148 250.911 77.7659 251.433 78.147C251.963 78.5199 252.634 78.7063 253.446 78.7063ZM266.789 82V62.9091H271.922V66.2401H272.121C272.469 65.0552 273.053 64.1603 273.873 63.5554C274.694 62.9422 275.638 62.6357 276.707 62.6357C276.972 62.6357 277.258 62.6522 277.565 62.6854C277.871 62.7185 278.141 62.7641 278.373 62.8221V67.5202C278.124 67.4457 277.78 67.3794 277.341 67.3214C276.902 67.2634 276.5 67.2344 276.135 67.2344C275.356 67.2344 274.66 67.4042 274.047 67.744C273.442 68.0754 272.962 68.5394 272.605 69.136C272.257 69.7326 272.083 70.4203 272.083 71.1992V82H266.789Z" fill="#828282"/>
<rect x="92" y="181" width="1179" height="80" rx="13.3333" fill="#C8C8C8"/>
<rect x="111.5" y="194.333" width="212" height="53.3333" rx="6.66667" fill="#828282"/>
<path d="M166.458 212.818H171.701L175.307 221.606H175.489L179.095 212.818H184.337V228.333H180.216V219.364H180.095L176.64 228.212H174.155L170.701 219.303H170.58V228.333H166.458V212.818ZM192 228.545C190.737 228.545 189.657 228.295 188.758 227.795C187.859 227.29 187.169 226.588 186.689 225.689C186.21 224.785 185.97 223.737 185.97 222.545C185.97 221.354 186.21 220.308 186.689 219.409C187.169 218.505 187.859 217.803 188.758 217.303C189.657 216.798 190.737 216.545 192 216.545C193.263 216.545 194.343 216.798 195.242 217.303C196.141 217.803 196.831 218.505 197.311 219.409C197.79 220.308 198.03 221.354 198.03 222.545C198.03 223.737 197.79 224.785 197.311 225.689C196.831 226.588 196.141 227.29 195.242 227.795C194.343 228.295 193.263 228.545 192 228.545ZM192.03 225.455C192.384 225.455 192.689 225.336 192.947 225.098C193.205 224.861 193.404 224.523 193.545 224.083C193.687 223.644 193.758 223.121 193.758 222.515C193.758 221.904 193.687 221.381 193.545 220.947C193.404 220.508 193.205 220.169 192.947 219.932C192.689 219.694 192.384 219.576 192.03 219.576C191.657 219.576 191.336 219.694 191.068 219.932C190.801 220.169 190.596 220.508 190.455 220.947C190.313 221.381 190.242 221.904 190.242 222.515C190.242 223.121 190.313 223.644 190.455 224.083C190.596 224.523 190.801 224.861 191.068 225.098C191.336 225.336 191.657 225.455 192.03 225.455ZM203.909 221.788V228.333H199.727V216.697H203.697V218.909H203.818C204.071 218.172 204.515 217.593 205.152 217.174C205.793 216.755 206.54 216.545 207.394 216.545C208.217 216.545 208.932 216.735 209.538 217.114C210.149 217.487 210.621 218.003 210.955 218.659C211.293 219.316 211.46 220.066 211.455 220.909V228.333H207.273V221.788C207.278 221.212 207.131 220.76 206.833 220.432C206.54 220.104 206.131 219.939 205.606 219.939C205.263 219.939 204.962 220.015 204.705 220.167C204.452 220.313 204.258 220.525 204.121 220.803C203.985 221.076 203.914 221.404 203.909 221.788ZM219.125 232.939C217.958 232.939 216.958 232.773 216.125 232.439C215.297 232.111 214.653 231.657 214.193 231.076C213.739 230.5 213.484 229.838 213.428 229.091H217.458C217.499 229.338 217.6 229.538 217.761 229.689C217.923 229.841 218.13 229.949 218.383 230.015C218.64 230.086 218.928 230.121 219.246 230.121C219.787 230.121 220.234 229.99 220.587 229.727C220.946 229.465 221.125 228.99 221.125 228.303V226.333H221.004C220.852 226.727 220.62 227.063 220.307 227.341C219.994 227.614 219.617 227.823 219.178 227.97C218.739 228.111 218.256 228.182 217.731 228.182C216.903 228.182 216.14 227.99 215.443 227.606C214.751 227.222 214.196 226.614 213.777 225.78C213.362 224.947 213.155 223.859 213.155 222.515C213.155 221.111 213.372 219.97 213.807 219.091C214.246 218.212 214.812 217.568 215.504 217.159C216.201 216.75 216.933 216.545 217.701 216.545C218.277 216.545 218.782 216.646 219.216 216.848C219.65 217.045 220.014 217.311 220.307 217.644C220.6 217.972 220.822 218.333 220.973 218.727H221.064V216.697H225.246V228.303C225.246 229.288 224.991 230.124 224.481 230.811C223.976 231.503 223.264 232.03 222.345 232.394C221.426 232.758 220.352 232.939 219.125 232.939ZM219.277 225.212C219.66 225.212 219.989 225.106 220.261 224.894C220.539 224.677 220.751 224.369 220.898 223.97C221.049 223.566 221.125 223.081 221.125 222.515C221.125 221.939 221.049 221.447 220.898 221.038C220.751 220.624 220.539 220.308 220.261 220.091C219.989 219.869 219.66 219.758 219.277 219.758C218.893 219.758 218.564 219.869 218.292 220.091C218.024 220.308 217.817 220.624 217.67 221.038C217.529 221.447 217.458 221.939 217.458 222.515C217.458 223.091 217.529 223.581 217.67 223.985C217.817 224.384 218.024 224.689 218.292 224.901C218.564 225.109 218.893 225.212 219.277 225.212ZM232.979 228.545C231.717 228.545 230.636 228.295 229.737 227.795C228.838 227.29 228.148 226.588 227.669 225.689C227.189 224.785 226.949 223.737 226.949 222.545C226.949 221.354 227.189 220.308 227.669 219.409C228.148 218.505 228.838 217.803 229.737 217.303C230.636 216.798 231.717 216.545 232.979 216.545C234.242 216.545 235.323 216.798 236.222 217.303C237.121 217.803 237.81 218.505 238.29 219.409C238.77 220.308 239.009 221.354 239.009 222.545C239.009 223.737 238.77 224.785 238.29 225.689C237.81 226.588 237.121 227.29 236.222 227.795C235.323 228.295 234.242 228.545 232.979 228.545ZM233.009 225.455C233.363 225.455 233.669 225.336 233.926 225.098C234.184 224.861 234.383 224.523 234.525 224.083C234.666 223.644 234.737 223.121 234.737 222.515C234.737 221.904 234.666 221.381 234.525 220.947C234.383 220.508 234.184 220.169 233.926 219.932C233.669 219.694 233.363 219.576 233.009 219.576C232.636 219.576 232.315 219.694 232.047 219.932C231.78 220.169 231.575 220.508 231.434 220.947C231.292 221.381 231.222 221.904 231.222 222.515C231.222 223.121 231.292 223.644 231.434 224.083C231.575 224.523 231.78 224.861 232.047 225.098C232.315 225.336 232.636 225.455 233.009 225.455ZM246.616 228.333H240.646V212.818H246.555C248.151 212.818 249.53 213.129 250.691 213.75C251.858 214.366 252.757 215.255 253.388 216.417C254.025 217.573 254.343 218.96 254.343 220.576C254.343 222.192 254.027 223.581 253.396 224.742C252.765 225.899 251.871 226.788 250.714 227.409C249.557 228.025 248.191 228.333 246.616 228.333ZM244.858 224.758H246.464C247.232 224.758 247.886 224.634 248.426 224.386C248.972 224.139 249.386 223.712 249.669 223.106C249.956 222.5 250.1 221.657 250.1 220.576C250.1 219.495 249.954 218.651 249.661 218.045C249.373 217.439 248.949 217.013 248.388 216.765C247.833 216.518 247.151 216.394 246.343 216.394H244.858V224.758ZM256.292 228.333V212.818H263.019C264.201 212.818 265.193 212.977 265.996 213.295C266.804 213.614 267.413 214.063 267.822 214.644C268.236 215.225 268.443 215.909 268.443 216.697C268.443 217.268 268.317 217.788 268.064 218.258C267.817 218.727 267.468 219.121 267.019 219.439C266.569 219.753 266.044 219.97 265.443 220.091V220.242C266.11 220.268 266.716 220.437 267.261 220.75C267.807 221.058 268.241 221.485 268.564 222.03C268.888 222.571 269.049 223.207 269.049 223.939C269.049 224.788 268.827 225.543 268.383 226.205C267.943 226.866 267.317 227.386 266.504 227.765C265.691 228.144 264.721 228.333 263.595 228.333H256.292ZM260.504 224.97H262.473C263.181 224.97 263.711 224.838 264.064 224.576C264.418 224.308 264.595 223.914 264.595 223.394C264.595 223.03 264.511 222.722 264.345 222.47C264.178 222.217 263.941 222.025 263.633 221.894C263.33 221.763 262.963 221.697 262.534 221.697H260.504V224.97ZM260.504 219.091H262.231C262.6 219.091 262.926 219.033 263.208 218.917C263.491 218.8 263.711 218.634 263.867 218.417C264.029 218.194 264.11 217.924 264.11 217.606C264.11 217.126 263.938 216.76 263.595 216.508C263.251 216.25 262.817 216.121 262.292 216.121H260.504V219.091Z" fill="#F4F4F4"/>
<rect x="343.5" y="194.333" width="212" height="53.3333" rx="6.66667" fill="#828282"/>
<path d="M407.271 228.333V212.818H418.453V216.212H411.483V218.879H417.877V222.273H411.483V224.939H418.422V228.333H407.271ZM424.208 216.697L425.905 220.303L427.693 216.697H431.845L428.723 222.515L431.996 228.333H427.875L425.905 224.636L423.996 228.333H419.814L423.117 222.515L420.027 216.697H424.208ZM433.331 232.697V216.697H437.483V218.727H437.574C437.725 218.333 437.948 217.972 438.241 217.644C438.533 217.311 438.897 217.045 439.331 216.848C439.766 216.646 440.271 216.545 440.847 216.545C441.614 216.545 442.344 216.75 443.036 217.159C443.733 217.568 444.299 218.212 444.733 219.091C445.172 219.97 445.392 221.111 445.392 222.515C445.392 223.859 445.182 224.972 444.763 225.856C444.349 226.74 443.794 227.399 443.097 227.833C442.405 228.268 441.645 228.485 440.816 228.485C440.271 228.485 439.783 228.396 439.354 228.22C438.93 228.038 438.566 227.793 438.263 227.485C437.965 227.172 437.735 226.818 437.574 226.424H437.513V232.697H433.331ZM437.422 222.515C437.422 223.081 437.496 223.571 437.642 223.985C437.794 224.394 438.006 224.712 438.278 224.939C438.556 225.162 438.887 225.273 439.271 225.273C439.655 225.273 439.98 225.164 440.248 224.947C440.521 224.725 440.728 224.409 440.869 224C441.016 223.586 441.089 223.091 441.089 222.515C441.089 221.939 441.016 221.447 440.869 221.038C440.728 220.624 440.521 220.308 440.248 220.091C439.98 219.869 439.655 219.758 439.271 219.758C438.887 219.758 438.556 219.869 438.278 220.091C438.006 220.308 437.794 220.624 437.642 221.038C437.496 221.447 437.422 221.939 437.422 222.515ZM447.144 228.333V216.697H451.205V218.909H451.326C451.538 218.091 451.874 217.492 452.333 217.114C452.798 216.735 453.341 216.545 453.962 216.545C454.144 216.545 454.323 216.561 454.5 216.591C454.682 216.616 454.856 216.654 455.023 216.705V220.273C454.816 220.202 454.561 220.149 454.258 220.114C453.955 220.078 453.694 220.061 453.477 220.061C453.068 220.061 452.699 220.154 452.371 220.341C452.048 220.523 451.793 220.78 451.606 221.114C451.419 221.442 451.326 221.828 451.326 222.273V228.333H447.144ZM461.303 228.545C460.061 228.545 458.99 228.308 458.091 227.833C457.197 227.354 456.508 226.667 456.023 225.773C455.543 224.874 455.303 223.798 455.303 222.545C455.303 221.343 455.545 220.293 456.03 219.394C456.515 218.495 457.2 217.795 458.083 217.295C458.967 216.795 460.01 216.545 461.212 216.545C462.091 216.545 462.886 216.682 463.598 216.955C464.311 217.227 464.919 217.624 465.424 218.144C465.929 218.659 466.318 219.285 466.591 220.023C466.864 220.76 467 221.591 467 222.515V223.485H456.606V221.182H463.152C463.146 220.848 463.061 220.556 462.894 220.303C462.732 220.045 462.513 219.846 462.235 219.705C461.962 219.558 461.652 219.485 461.303 219.485C460.965 219.485 460.654 219.558 460.371 219.705C460.088 219.846 459.861 220.043 459.689 220.295C459.523 220.548 459.434 220.843 459.424 221.182V223.667C459.424 224.04 459.503 224.374 459.659 224.667C459.816 224.96 460.04 225.189 460.333 225.356C460.626 225.523 460.98 225.606 461.394 225.606C461.682 225.606 461.944 225.566 462.182 225.485C462.424 225.404 462.631 225.288 462.803 225.136C462.975 224.98 463.101 224.793 463.182 224.576H467C466.869 225.384 466.558 226.086 466.068 226.682C465.578 227.273 464.929 227.732 464.121 228.061C463.318 228.384 462.379 228.545 461.303 228.545ZM479.343 220.485H475.494C475.474 220.247 475.391 220.043 475.244 219.871C475.098 219.699 474.908 219.568 474.676 219.477C474.449 219.381 474.196 219.333 473.919 219.333C473.56 219.333 473.252 219.399 472.994 219.53C472.737 219.662 472.61 219.848 472.616 220.091C472.61 220.263 472.684 220.422 472.835 220.568C472.992 220.715 473.292 220.828 473.737 220.909L476.1 221.333C477.292 221.55 478.179 221.917 478.759 222.432C479.345 222.942 479.641 223.626 479.646 224.485C479.641 225.313 479.393 226.033 478.903 226.644C478.419 227.25 477.754 227.72 476.911 228.053C476.073 228.381 475.116 228.545 474.04 228.545C472.262 228.545 470.871 228.182 469.866 227.455C468.866 226.727 468.307 225.768 468.191 224.576H472.343C472.398 224.944 472.58 225.23 472.888 225.432C473.201 225.629 473.595 225.727 474.07 225.727C474.454 225.727 474.77 225.662 475.017 225.53C475.27 225.399 475.398 225.212 475.403 224.97C475.398 224.747 475.287 224.571 475.07 224.439C474.858 224.308 474.525 224.202 474.07 224.121L472.009 223.758C470.823 223.55 469.934 223.157 469.343 222.576C468.752 221.995 468.459 221.247 468.464 220.333C468.459 219.525 468.671 218.841 469.1 218.28C469.535 217.715 470.153 217.285 470.956 216.992C471.765 216.694 472.722 216.545 473.828 216.545C475.509 216.545 476.835 216.894 477.805 217.591C478.78 218.288 479.292 219.253 479.343 220.485ZM491.884 220.485H488.036C488.016 220.247 487.932 220.043 487.786 219.871C487.64 219.699 487.45 219.568 487.218 219.477C486.991 219.381 486.738 219.333 486.46 219.333C486.102 219.333 485.794 219.399 485.536 219.53C485.278 219.662 485.152 219.848 485.157 220.091C485.152 220.263 485.225 220.422 485.377 220.568C485.533 220.715 485.834 220.828 486.278 220.909L488.642 221.333C489.834 221.55 490.72 221.917 491.301 222.432C491.887 222.942 492.182 223.626 492.188 224.485C492.182 225.313 491.935 226.033 491.445 226.644C490.96 227.25 490.296 227.72 489.453 228.053C488.614 228.381 487.657 228.545 486.581 228.545C484.804 228.545 483.412 228.182 482.407 227.455C481.407 226.727 480.849 225.768 480.733 224.576H484.884C484.94 224.944 485.122 225.23 485.43 225.432C485.743 225.629 486.137 225.727 486.612 225.727C486.996 225.727 487.311 225.662 487.559 225.53C487.811 225.399 487.94 225.212 487.945 224.97C487.94 224.747 487.829 224.571 487.612 224.439C487.4 224.308 487.066 224.202 486.612 224.121L484.551 223.758C483.364 223.55 482.475 223.157 481.884 222.576C481.294 221.995 481.001 221.247 481.006 220.333C481.001 219.525 481.213 218.841 481.642 218.28C482.076 217.715 482.695 217.285 483.498 216.992C484.306 216.694 485.263 216.545 486.369 216.545C488.051 216.545 489.377 216.894 490.347 217.591C491.321 218.288 491.834 219.253 491.884 220.485Z" fill="#F4F4F4"/>
<rect x="575.5" y="194.333" width="212" height="53.3333" rx="6.66667" fill="#828282"/>
<path d="M651.917 228.333V212.818H658.614C659.765 212.818 660.773 213.028 661.636 213.447C662.5 213.866 663.172 214.47 663.652 215.258C664.131 216.045 664.371 216.99 664.371 218.091C664.371 219.202 664.124 220.139 663.629 220.901C663.139 221.664 662.449 222.24 661.561 222.629C660.677 223.018 659.644 223.212 658.462 223.212H654.462V219.939H657.614C658.109 219.939 658.53 219.879 658.879 219.758C659.232 219.631 659.503 219.432 659.689 219.159C659.881 218.886 659.977 218.53 659.977 218.091C659.977 217.646 659.881 217.285 659.689 217.008C659.503 216.725 659.232 216.518 658.879 216.386C658.53 216.25 658.109 216.182 657.614 216.182H656.129V228.333H651.917ZM661.008 221.212L664.886 228.333H660.311L656.523 221.212H661.008ZM671.553 228.545C670.311 228.545 669.24 228.308 668.341 227.833C667.447 227.354 666.758 226.667 666.273 225.773C665.793 224.874 665.553 223.798 665.553 222.545C665.553 221.343 665.795 220.293 666.28 219.394C666.765 218.495 667.449 217.795 668.333 217.295C669.217 216.795 670.26 216.545 671.462 216.545C672.341 216.545 673.136 216.682 673.848 216.955C674.561 217.227 675.169 217.624 675.674 218.144C676.179 218.659 676.568 219.285 676.841 220.023C677.114 220.76 677.25 221.591 677.25 222.515V223.485H666.856V221.182H673.402C673.396 220.848 673.311 220.556 673.144 220.303C672.982 220.045 672.763 219.846 672.485 219.705C672.212 219.558 671.902 219.485 671.553 219.485C671.215 219.485 670.904 219.558 670.621 219.705C670.338 219.846 670.111 220.043 669.939 220.295C669.773 220.548 669.684 220.843 669.674 221.182V223.667C669.674 224.04 669.753 224.374 669.909 224.667C670.066 224.96 670.29 225.189 670.583 225.356C670.876 225.523 671.23 225.606 671.644 225.606C671.932 225.606 672.194 225.566 672.432 225.485C672.674 225.404 672.881 225.288 673.053 225.136C673.225 224.98 673.351 224.793 673.432 224.576H677.25C677.119 225.384 676.808 226.086 676.318 226.682C675.828 227.273 675.179 227.732 674.371 228.061C673.568 228.384 672.629 228.545 671.553 228.545ZM682.199 228.515C681.456 228.515 680.8 228.394 680.229 228.151C679.664 227.904 679.219 227.53 678.896 227.03C678.573 226.53 678.411 225.894 678.411 225.121C678.411 224.485 678.52 223.942 678.737 223.492C678.954 223.038 679.257 222.667 679.646 222.379C680.035 222.091 680.487 221.871 681.002 221.72C681.522 221.568 682.083 221.47 682.684 221.424C683.335 221.374 683.858 221.313 684.252 221.242C684.651 221.167 684.939 221.063 685.116 220.932C685.292 220.795 685.381 220.616 685.381 220.394V220.364C685.381 220.061 685.265 219.828 685.032 219.667C684.8 219.505 684.502 219.424 684.138 219.424C683.739 219.424 683.414 219.513 683.161 219.689C682.914 219.861 682.765 220.126 682.714 220.485H678.866C678.916 219.778 679.141 219.126 679.54 218.53C679.944 217.929 680.532 217.449 681.305 217.091C682.078 216.727 683.042 216.545 684.199 216.545C685.032 216.545 685.78 216.644 686.441 216.841C687.103 217.033 687.666 217.303 688.131 217.651C688.595 217.995 688.949 218.399 689.191 218.864C689.439 219.323 689.562 219.823 689.562 220.364V228.333H685.653V226.697H685.562C685.33 227.131 685.047 227.482 684.714 227.75C684.386 228.018 684.009 228.212 683.585 228.333C683.166 228.455 682.704 228.515 682.199 228.515ZM683.562 225.879C683.881 225.879 684.179 225.813 684.456 225.682C684.739 225.55 684.969 225.361 685.146 225.114C685.323 224.866 685.411 224.566 685.411 224.212V223.242C685.3 223.288 685.181 223.331 685.055 223.371C684.934 223.412 684.802 223.449 684.661 223.485C684.525 223.52 684.378 223.553 684.222 223.583C684.07 223.614 683.911 223.641 683.744 223.667C683.421 223.717 683.156 223.8 682.949 223.917C682.747 224.028 682.595 224.167 682.494 224.333C682.398 224.495 682.35 224.677 682.35 224.879C682.35 225.202 682.464 225.449 682.691 225.621C682.919 225.793 683.209 225.879 683.562 225.879ZM697.167 228.545C695.904 228.545 694.823 228.295 693.924 227.795C693.025 227.29 692.336 226.588 691.856 225.689C691.376 224.785 691.136 223.737 691.136 222.545C691.136 221.354 691.376 220.308 691.856 219.409C692.336 218.505 693.025 217.803 693.924 217.303C694.823 216.798 695.904 216.545 697.167 216.545C698.308 216.545 699.295 216.753 700.129 217.167C700.967 217.576 701.616 218.157 702.076 218.909C702.535 219.657 702.768 220.535 702.773 221.545H698.894C698.838 220.934 698.662 220.47 698.364 220.151C698.071 219.828 697.692 219.667 697.227 219.667C696.864 219.667 696.545 219.773 696.273 219.985C696 220.192 695.788 220.508 695.636 220.932C695.485 221.351 695.409 221.879 695.409 222.515C695.409 223.151 695.485 223.682 695.636 224.106C695.788 224.525 696 224.841 696.273 225.053C696.545 225.26 696.864 225.364 697.227 225.364C697.535 225.364 697.808 225.293 698.045 225.151C698.283 225.005 698.475 224.793 698.621 224.515C698.773 224.232 698.864 223.889 698.894 223.485H702.773C702.758 224.51 702.523 225.404 702.068 226.167C701.614 226.924 700.97 227.51 700.136 227.924C699.308 228.338 698.318 228.545 697.167 228.545ZM711.438 216.697V219.727H703.771V216.697H711.438ZM705.256 213.909H709.438V224.591C709.438 224.753 709.465 224.889 709.521 225C709.576 225.106 709.662 225.187 709.778 225.242C709.895 225.293 710.044 225.318 710.225 225.318C710.352 225.318 710.498 225.303 710.665 225.273C710.836 225.242 710.963 225.217 711.044 225.197L711.65 228.136C711.463 228.192 711.195 228.26 710.847 228.341C710.503 228.422 710.094 228.475 709.619 228.5C708.66 228.55 707.854 228.452 707.203 228.205C706.551 227.952 706.061 227.556 705.733 227.015C705.405 226.475 705.246 225.798 705.256 224.985V213.909Z" fill="#F4F4F4"/>
<rect x="807.5" y="194.333" width="212" height="53.3333" rx="6.66667" fill="#828282"/>
<path d="M870.655 217.667C870.615 217.162 870.426 216.768 870.087 216.485C869.754 216.202 869.246 216.061 868.564 216.061C868.13 216.061 867.774 216.114 867.496 216.22C867.223 216.321 867.021 216.46 866.89 216.636C866.759 216.813 866.691 217.015 866.686 217.242C866.676 217.429 866.708 217.598 866.784 217.75C866.865 217.896 866.991 218.03 867.163 218.151C867.335 218.268 867.554 218.374 867.822 218.47C868.09 218.566 868.408 218.651 868.777 218.727L870.049 219C870.908 219.182 871.643 219.422 872.254 219.72C872.865 220.018 873.365 220.369 873.754 220.773C874.143 221.172 874.428 221.621 874.61 222.121C874.797 222.621 874.893 223.167 874.898 223.758C874.893 224.778 874.638 225.641 874.133 226.348C873.628 227.056 872.905 227.593 871.966 227.962C871.032 228.331 869.908 228.515 868.595 228.515C867.246 228.515 866.069 228.316 865.064 227.917C864.064 227.518 863.287 226.904 862.731 226.076C862.181 225.242 861.903 224.177 861.898 222.879H865.898C865.923 223.354 866.042 223.753 866.254 224.076C866.466 224.399 866.764 224.644 867.148 224.811C867.537 224.977 867.999 225.061 868.534 225.061C868.984 225.061 869.36 225.005 869.663 224.894C869.966 224.783 870.196 224.629 870.352 224.432C870.509 224.235 870.59 224.01 870.595 223.758C870.59 223.52 870.511 223.313 870.36 223.136C870.213 222.955 869.971 222.793 869.633 222.651C869.294 222.505 868.837 222.369 868.261 222.242L866.716 221.909C865.342 221.611 864.259 221.114 863.466 220.417C862.678 219.715 862.287 218.758 862.292 217.545C862.287 216.561 862.549 215.699 863.08 214.962C863.615 214.22 864.355 213.641 865.299 213.227C866.249 212.813 867.337 212.606 868.564 212.606C869.817 212.606 870.9 212.816 871.814 213.235C872.729 213.654 873.433 214.245 873.928 215.008C874.428 215.765 874.681 216.651 874.686 217.667H870.655ZM882.167 228.545C880.904 228.545 879.823 228.295 878.924 227.795C878.025 227.29 877.336 226.588 876.856 225.689C876.376 224.785 876.136 223.737 876.136 222.545C876.136 221.354 876.376 220.308 876.856 219.409C877.336 218.505 878.025 217.803 878.924 217.303C879.823 216.798 880.904 216.545 882.167 216.545C883.429 216.545 884.51 216.798 885.409 217.303C886.308 217.803 886.997 218.505 887.477 219.409C887.957 220.308 888.197 221.354 888.197 222.545C888.197 223.737 887.957 224.785 887.477 225.689C886.997 226.588 886.308 227.29 885.409 227.795C884.51 228.295 883.429 228.545 882.167 228.545ZM882.197 225.455C882.551 225.455 882.856 225.336 883.114 225.098C883.371 224.861 883.571 224.523 883.712 224.083C883.854 223.644 883.924 223.121 883.924 222.515C883.924 221.904 883.854 221.381 883.712 220.947C883.571 220.508 883.371 220.169 883.114 219.932C882.856 219.694 882.551 219.576 882.197 219.576C881.823 219.576 881.503 219.694 881.235 219.932C880.967 220.169 880.763 220.508 880.621 220.947C880.48 221.381 880.409 221.904 880.409 222.515C880.409 223.121 880.48 223.644 880.621 224.083C880.763 224.523 880.967 224.861 881.235 225.098C881.503 225.336 881.823 225.455 882.197 225.455ZM895.5 228.545C894.237 228.545 893.157 228.295 892.258 227.795C891.359 227.29 890.669 226.588 890.189 225.689C889.71 224.785 889.47 223.737 889.47 222.545C889.47 221.354 889.71 220.308 890.189 219.409C890.669 218.505 891.359 217.803 892.258 217.303C893.157 216.798 894.237 216.545 895.5 216.545C896.641 216.545 897.629 216.753 898.462 217.167C899.301 217.576 899.949 218.157 900.409 218.909C900.869 219.657 901.101 220.535 901.106 221.545H897.227C897.172 220.934 896.995 220.47 896.697 220.151C896.404 219.828 896.025 219.667 895.561 219.667C895.197 219.667 894.879 219.773 894.606 219.985C894.333 220.192 894.121 220.508 893.97 220.932C893.818 221.351 893.742 221.879 893.742 222.515C893.742 223.151 893.818 223.682 893.97 224.106C894.121 224.525 894.333 224.841 894.606 225.053C894.879 225.26 895.197 225.364 895.561 225.364C895.869 225.364 896.141 225.293 896.379 225.151C896.616 225.005 896.808 224.793 896.955 224.515C897.106 224.232 897.197 223.889 897.227 223.485H901.106C901.091 224.51 900.856 225.404 900.402 226.167C899.947 226.924 899.303 227.51 898.47 227.924C897.641 228.338 896.652 228.545 895.5 228.545ZM906.589 225.576L906.619 220.606H907.165L909.983 216.697H914.68L909.953 222.788H908.771L906.589 225.576ZM902.831 228.333V212.818H907.013V228.333H902.831ZM910.013 228.333L907.347 223.727L910.074 220.758L914.801 228.333H910.013ZM920.866 228.545C919.623 228.545 918.552 228.308 917.653 227.833C916.759 227.354 916.07 226.667 915.585 225.773C915.105 224.874 914.866 223.798 914.866 222.545C914.866 221.343 915.108 220.293 915.593 219.394C916.078 218.495 916.762 217.795 917.646 217.295C918.53 216.795 919.573 216.545 920.775 216.545C921.653 216.545 922.449 216.682 923.161 216.955C923.873 217.227 924.482 217.624 924.987 218.144C925.492 218.659 925.881 219.285 926.153 220.023C926.426 220.76 926.562 221.591 926.562 222.515V223.485H916.169V221.182H922.714C922.709 220.848 922.623 220.556 922.456 220.303C922.295 220.045 922.075 219.846 921.797 219.705C921.525 219.558 921.214 219.485 920.866 219.485C920.527 219.485 920.217 219.558 919.934 219.705C919.651 219.846 919.424 220.043 919.252 220.295C919.085 220.548 918.997 220.843 918.987 221.182V223.667C918.987 224.04 919.065 224.374 919.222 224.667C919.378 224.96 919.603 225.189 919.896 225.356C920.189 225.523 920.542 225.606 920.956 225.606C921.244 225.606 921.507 225.566 921.744 225.485C921.987 225.404 922.194 225.288 922.366 225.136C922.537 224.98 922.664 224.793 922.744 224.576H926.562C926.431 225.384 926.121 226.086 925.631 226.682C925.141 227.273 924.492 227.732 923.684 228.061C922.881 228.384 921.941 228.545 920.866 228.545ZM935.208 216.697V219.727H927.542V216.697H935.208ZM929.027 213.909H933.208V224.591C933.208 224.753 933.236 224.889 933.292 225C933.347 225.106 933.433 225.187 933.549 225.242C933.665 225.293 933.814 225.318 933.996 225.318C934.122 225.318 934.269 225.303 934.436 225.273C934.607 225.242 934.734 225.217 934.814 225.197L935.42 228.136C935.234 228.192 934.966 228.26 934.617 228.341C934.274 228.422 933.865 228.475 933.39 228.5C932.431 228.55 931.625 228.452 930.973 228.205C930.322 227.952 929.832 227.556 929.504 227.015C929.176 226.475 929.016 225.798 929.027 224.985V213.909ZM939.187 228.576C938.602 228.576 938.099 228.371 937.68 227.962C937.266 227.548 937.061 227.045 937.066 226.455C937.061 225.879 937.266 225.386 937.68 224.977C938.099 224.568 938.602 224.364 939.187 224.364C939.743 224.364 940.233 224.568 940.657 224.977C941.086 225.386 941.304 225.879 941.309 226.455C941.304 226.848 941.2 227.207 940.998 227.53C940.801 227.848 940.544 228.104 940.225 228.295C939.907 228.482 939.561 228.576 939.187 228.576ZM947.733 212.818V228.333H943.521V212.818H947.733ZM964.759 220.576C964.759 222.303 964.424 223.76 963.752 224.947C963.08 226.129 962.174 227.025 961.032 227.636C959.891 228.242 958.618 228.545 957.214 228.545C955.8 228.545 954.522 228.24 953.381 227.629C952.244 227.013 951.34 226.114 950.669 224.932C950.002 223.745 949.669 222.293 949.669 220.576C949.669 218.848 950.002 217.394 950.669 216.212C951.34 215.025 952.244 214.129 953.381 213.523C954.522 212.912 955.8 212.606 957.214 212.606C958.618 212.606 959.891 212.912 961.032 213.523C962.174 214.129 963.08 215.025 963.752 216.212C964.424 217.394 964.759 218.848 964.759 220.576ZM960.426 220.576C960.426 219.646 960.302 218.864 960.055 218.227C959.812 217.586 959.451 217.101 958.972 216.773C958.497 216.439 957.911 216.273 957.214 216.273C956.517 216.273 955.929 216.439 955.449 216.773C954.974 217.101 954.613 217.586 954.366 218.227C954.123 218.864 954.002 219.646 954.002 220.576C954.002 221.505 954.123 222.29 954.366 222.932C954.613 223.568 954.974 224.053 955.449 224.386C955.929 224.715 956.517 224.879 957.214 224.879C957.911 224.879 958.497 224.715 958.972 224.386C959.451 224.053 959.812 223.568 960.055 222.932C960.302 222.29 960.426 221.505 960.426 220.576Z" fill="#F4F4F4"/>
<rect x="1039.5" y="194.333" width="212" height="53.3333" rx="6.66667" fill="#828282"/>
<path d="M1101.21 216.212V212.818H1114.7V216.212H1110.03V228.333H1105.88V216.212H1101.21ZM1120.52 221.788V228.333H1116.34V212.818H1120.37V218.909H1120.49C1120.76 218.167 1121.19 217.588 1121.8 217.174C1122.42 216.755 1123.15 216.545 1124.01 216.545C1124.83 216.545 1125.55 216.732 1126.15 217.106C1126.76 217.48 1127.24 217.995 1127.57 218.651C1127.91 219.308 1128.07 220.061 1128.07 220.909V228.333H1123.89V221.788C1123.89 221.212 1123.75 220.76 1123.46 220.432C1123.17 220.104 1122.76 219.939 1122.22 219.939C1121.88 219.939 1121.58 220.015 1121.33 220.167C1121.07 220.313 1120.88 220.525 1120.74 220.803C1120.6 221.076 1120.53 221.404 1120.52 221.788ZM1130.13 228.333V216.697H1134.19V218.909H1134.32C1134.53 218.091 1134.86 217.492 1135.32 217.114C1135.79 216.735 1136.33 216.545 1136.95 216.545C1137.13 216.545 1137.31 216.561 1137.49 216.591C1137.67 216.616 1137.85 216.654 1138.01 216.705V220.273C1137.81 220.202 1137.55 220.149 1137.25 220.114C1136.94 220.078 1136.68 220.061 1136.47 220.061C1136.06 220.061 1135.69 220.154 1135.36 220.341C1135.04 220.523 1134.78 220.78 1134.6 221.114C1134.41 221.442 1134.32 221.828 1134.32 222.273V228.333H1130.13ZM1144.29 228.545C1143.05 228.545 1141.98 228.308 1141.08 227.833C1140.19 227.354 1139.5 226.667 1139.01 225.773C1138.53 224.874 1138.29 223.798 1138.29 222.545C1138.29 221.343 1138.54 220.293 1139.02 219.394C1139.5 218.495 1140.19 217.795 1141.07 217.295C1141.96 216.795 1143 216.545 1144.2 216.545C1145.08 216.545 1145.88 216.682 1146.59 216.955C1147.3 217.227 1147.91 217.624 1148.41 218.144C1148.92 218.659 1149.31 219.285 1149.58 220.023C1149.85 220.76 1149.99 221.591 1149.99 222.515V223.485H1139.6V221.182H1146.14C1146.14 220.848 1146.05 220.556 1145.88 220.303C1145.72 220.045 1145.5 219.846 1145.22 219.705C1144.95 219.558 1144.64 219.485 1144.29 219.485C1143.95 219.485 1143.64 219.558 1143.36 219.705C1143.08 219.846 1142.85 220.043 1142.68 220.295C1142.51 220.548 1142.42 220.843 1142.41 221.182V223.667C1142.41 224.04 1142.49 224.374 1142.65 224.667C1142.81 224.96 1143.03 225.189 1143.32 225.356C1143.62 225.523 1143.97 225.606 1144.38 225.606C1144.67 225.606 1144.93 225.566 1145.17 225.485C1145.41 225.404 1145.62 225.288 1145.79 225.136C1145.96 224.98 1146.09 224.793 1146.17 224.576H1149.99C1149.86 225.384 1149.55 226.086 1149.06 226.682C1148.57 227.273 1147.92 227.732 1147.11 228.061C1146.31 228.384 1145.37 228.545 1144.29 228.545ZM1157.27 228.545C1156.03 228.545 1154.96 228.308 1154.06 227.833C1153.17 227.354 1152.48 226.667 1151.99 225.773C1151.51 224.874 1151.27 223.798 1151.27 222.545C1151.27 221.343 1151.51 220.293 1152 219.394C1152.48 218.495 1153.17 217.795 1154.05 217.295C1154.94 216.795 1155.98 216.545 1157.18 216.545C1158.06 216.545 1158.86 216.682 1159.57 216.955C1160.28 217.227 1160.89 217.624 1161.39 218.144C1161.9 218.659 1162.29 219.285 1162.56 220.023C1162.83 220.76 1162.97 221.591 1162.97 222.515V223.485H1152.57V221.182H1159.12C1159.12 220.848 1159.03 220.556 1158.86 220.303C1158.7 220.045 1158.48 219.846 1158.2 219.705C1157.93 219.558 1157.62 219.485 1157.27 219.485C1156.93 219.485 1156.62 219.558 1156.34 219.705C1156.06 219.846 1155.83 220.043 1155.66 220.295C1155.49 220.548 1155.4 220.843 1155.39 221.182V223.667C1155.39 224.04 1155.47 224.374 1155.63 224.667C1155.78 224.96 1156.01 225.189 1156.3 225.356C1156.6 225.523 1156.95 225.606 1157.36 225.606C1157.65 225.606 1157.91 225.566 1158.15 225.485C1158.39 225.404 1158.6 225.288 1158.77 225.136C1158.94 224.98 1159.07 224.793 1159.15 224.576H1162.97C1162.84 225.384 1162.53 226.086 1162.04 226.682C1161.55 227.273 1160.9 227.732 1160.09 228.061C1159.29 228.384 1158.35 228.545 1157.27 228.545ZM1171.01 212.818H1175.16V223.455C1175.15 224.465 1174.9 225.354 1174.39 226.121C1173.89 226.884 1173.2 227.48 1172.32 227.909C1171.44 228.333 1170.43 228.545 1169.28 228.545C1168.29 228.545 1167.38 228.374 1166.55 228.03C1165.73 227.682 1165.07 227.136 1164.58 226.394C1164.09 225.646 1163.85 224.677 1163.86 223.485H1168.07C1168.08 223.874 1168.15 224.202 1168.27 224.47C1168.39 224.737 1168.55 224.939 1168.77 225.076C1168.98 225.207 1169.25 225.273 1169.55 225.273C1169.87 225.273 1170.13 225.205 1170.34 225.068C1170.56 224.932 1170.72 224.73 1170.83 224.462C1170.95 224.189 1171 223.854 1171.01 223.455V212.818ZM1185.52 217.667C1185.48 217.162 1185.29 216.768 1184.95 216.485C1184.62 216.202 1184.11 216.061 1183.43 216.061C1182.99 216.061 1182.64 216.114 1182.36 216.22C1182.09 216.321 1181.89 216.46 1181.75 216.636C1181.62 216.813 1181.56 217.015 1181.55 217.242C1181.54 217.429 1181.57 217.598 1181.65 217.75C1181.73 217.896 1181.86 218.03 1182.03 218.151C1182.2 218.268 1182.42 218.374 1182.69 218.47C1182.95 218.566 1183.27 218.651 1183.64 218.727L1184.91 219C1185.77 219.182 1186.51 219.422 1187.12 219.72C1187.73 220.018 1188.23 220.369 1188.62 220.773C1189.01 221.172 1189.29 221.621 1189.47 222.121C1189.66 222.621 1189.76 223.167 1189.76 223.758C1189.76 224.778 1189.5 225.641 1189 226.348C1188.49 227.056 1187.77 227.593 1186.83 227.962C1185.9 228.331 1184.77 228.515 1183.46 228.515C1182.11 228.515 1180.93 228.316 1179.93 227.917C1178.93 227.518 1178.15 226.904 1177.6 226.076C1177.05 225.242 1176.77 224.177 1176.76 222.879H1180.76C1180.79 223.354 1180.91 223.753 1181.12 224.076C1181.33 224.399 1181.63 224.644 1182.01 224.811C1182.4 224.977 1182.86 225.061 1183.4 225.061C1183.85 225.061 1184.22 225.005 1184.53 224.894C1184.83 224.783 1185.06 224.629 1185.22 224.432C1185.37 224.235 1185.45 224.01 1185.46 223.758C1185.45 223.52 1185.38 223.313 1185.22 223.136C1185.08 222.955 1184.84 222.793 1184.5 222.651C1184.16 222.505 1183.7 222.369 1183.13 222.242L1181.58 221.909C1180.21 221.611 1179.12 221.114 1178.33 220.417C1177.54 219.715 1177.15 218.758 1177.16 217.545C1177.15 216.561 1177.41 215.699 1177.94 214.962C1178.48 214.22 1179.22 213.641 1180.16 213.227C1181.11 212.813 1182.2 212.606 1183.43 212.606C1184.68 212.606 1185.76 212.816 1186.68 213.235C1187.59 213.654 1188.3 214.245 1188.79 215.008C1189.29 215.765 1189.55 216.651 1189.55 217.667H1185.52Z" fill="#F4F4F4"/>
</svg>
